[Header]
FileType HTR
DataType HTRS
FileVersion 1
NumSegments 64
NumFrames 2
DataFrameRate 30
EulerRotationOrder ZYX
CalibrationUnits mm
RotationUnits Degrees
GlobalAxisofGravity Y
BoneLengthAxis Y
ScaleFactor 1.0
[SegmentNames&Hierarchy]
Hips	GLOBAL
Spine	Hips
Spine1	Spine
Spine2	Spine1
Neck	Spine2
Head	Neck
LeftEye	Head
RightEye	Head
LeftShoulder	Spine2
LeftArm	LeftShoulder
LeftForeArm	LeftArm
LeftHand	LeftForeArm
LeftHandThumb1	LeftHand
LeftHandThumb2	LeftHandThumb1
LeftHandThumb3	LeftHandThumb2
LeftHandThumb4	LeftHandThumb3
LeftHandIndex1	LeftHand
LeftHandIndex2	LeftHandIndex1
LeftHandIndex3	LeftHandIndex2
LeftHandIndex4	LeftHandIndex3
LeftHandMiddle1	LeftHand
LeftHandMiddle2	LeftHandMiddle1
LeftHandMiddle3	LeftHandMiddle2
LeftHandMiddle4	LeftHandMiddle3
LeftHandRing1	LeftHand
LeftHandRing2	LeftHandRing1
LeftHandRing3	LeftHandRing2
LeftHandRing4	LeftHandRing3
LeftHandPinky1	LeftHand
LeftHandPinky2	LeftHandPinky1
LeftHandPinky3	LeftHandPinky2
LeftHandPinky4	LeftHandPinky3
RightShoulder	Spine2
RightArm	RightShoulder
RightForeArm	RightArm
RightHand	RightForeArm
RightHandPinky1	RightHand
RightHandPinky2	RightHandPinky1
RightHandPinky3	RightHandPinky2
RightHandPinky4	RightHandPinky3
RightHandRing1	RightHand
RightHandRing2	RightHandRing1
RightHandRing3	RightHandRing2
RightHandRing4	RightHandRing3
RightHandMiddle1	RightHand
RightHandMiddle2	RightHandMiddle1
RightHandMiddle3	RightHandMiddle2
RightHandMiddle4	RightHandMiddle3
RightHandIndex1	RightHand
RightHandIndex2	RightHandIndex1
RightHandIndex3	RightHandIndex2
RightHandIndex4	RightHandIndex3
RightHandThumb1	RightHand
RightHandThumb2	RightHandThumb1
RightHandThumb3	RightHandThumb2
RightHandThumb4	RightHandThumb3
LeftUpLeg	Hips
LeftLeg	LeftUpLeg
LeftFoot	LeftLeg
LeftToeBase	LeftFoot
RightUpLeg	Hips
RightLeg	RightUpLeg
RightFoot	RightLeg
RightToeBase	RightFoot
[BasePosition]
Hips	0	0	0	0	0	0	1
Spine	0	0	0	0	0	0	1
Spine1	0	0	0	0	0	0	1
Spine2	0	0	0	0	0	0	1
Neck	0	0	0	0	0	0	1
Head	0	0	0	0	0	0	1
LeftEye	0	0	0	0	0	0	1
RightEye	0	0	0	0	0	0	1
LeftShoulder	0	0	0	0	0	0	1
LeftArm	0	0	0	0	0	0	1
LeftForeArm	0	0	0	0	0	0	1
LeftHand	0	0	0	0	0	0	1
LeftHandThumb1	0	0	0	0	0	0	1
LeftHandThumb2	0	0	0	0	0	0	1
LeftHandThumb3	0	0	0	0	0	0	1
LeftHandThumb4	0	0	0	0	0	0	1
LeftHandIndex1	0	0	0	0	0	0	1
LeftHandIndex2	0	0	0	0	0	0	1
LeftHandIndex3	0	0	0	0	0	0	1
LeftHandIndex4	0	0	0	0	0	0	1
LeftHandMiddle1	0	0	0	0	0	0	1
LeftHandMiddle2	0	0	0	0	0	0	1
LeftHandMiddle3	0	0	0	0	0	0	1
LeftHandMiddle4	0	0	0	0	0	0	1
LeftHandRing1	0	0	0	0	0	0	1
LeftHandRing2	0	0	0	0	0	0	1
LeftHandRing3	0	0	0	0	0	0	1
LeftHandRing4	0	0	0	0	0	0	1
LeftHandPinky1	0	0	0	0	0	0	1
LeftHandPinky2	0	0	0	0	0	0	1
LeftHandPinky3	0	0	0	0	0	0	1
LeftHandPinky4	0	0	0	0	0	0	1
RightShoulder	0	0	0	0	0	0	1
RightArm	0	0	0	0	0	0	1
RightForeArm	0	0	0	0	0	0	1
RightHand	0	0	0	0	0	0	1
RightHandPinky1	0	0	0	0	0	0	1
RightHandPinky2	0	0	0	0	0	0	1
RightHandPinky3	0	0	0	0	0	0	1
RightHandPinky4	0	0	0	0	0	0	1
RightHandRing1	0	0	0	0	0	0	1
RightHandRing2	0	0	0	0	0	0	1
RightHandRing3	0	0	0	0	0	0	1
RightHandRing4	0	0	0	0	0	0	1
RightHandMiddle1	0	0	0	0	0	0	1
RightHandMiddle2	0	0	0	0	0	0	1
RightHandMiddle3	0	0	0	0	0	0	1
RightHandMiddle4	0	0	0	0	0	0	1
RightHandIndex1	0	0	0	0	0	0	1
RightHandIndex2	0	0	0	0	0	0	1
RightHandIndex3	0	0	0	0	0	0	1
RightHandIndex4	0	0	0	0	0	0	1
RightHandThumb1	0	0	0	0	0	0	1
RightHandThumb2	0	0	0	0	0	0	1
RightHandThumb3	0	0	0	0	0	0	1
RightHandThumb4	0	0	0	0	0	0	1
LeftUpLeg	0	0	0	0	0	0	1
LeftLeg	0	0	0	0	0	0	1
LeftFoot	0	0	0	0	0	0	1
LeftToeBase	0	0	0	0	0	0	1
RightUpLeg	0	0	0	0	0	0	1
RightLeg	0	0	0	0	0	0	1
RightFoot	0	0	0	0	0	0	1
RightToeBase	0	0	0	0	0	0	1
[Hips]
1	-16.20617104	1006.175781	8.907237053	5.976072311	-66.17047882	-1.371183634	1.0
2	-72.1414566	1007.167847	11.51643753	4.93510294	-68.17832947	0.2958797812	1.0
[Spine]
1	0	101.8159943	1.315000057	5.902020454	7.369257927	0.4427935481	1.0
2	0	101.8159943	1.315000057	5.647193909	8.852202415	-0.3952656984	1.0
[Spine1]
1	0	100.8349991	-10.00800037	4.187679291	4.767701626	-0.05873264372	1.0
2	0	100.8349991	-10.00800037	4.00330162	5.163897514	-0.5140580535	1.0
[Spine2]
1	0	91	-13.73399925	4.162635326	4.792510509	-0.03908357024	1.0
2	0	91	-13.73399925	3.962836981	5.198997021	-0.5020359159	1.0
[Neck]
1	0	166.7169952	-25.16200066	4.956516743	5.420538425	2.367131948	1.0
2	0	166.7169952	-25.16200066	4.985715866	5.421998978	2.286072254	1.0
[Head]
1	0	96.17900085	16.84999847	-11.11157417	33.89736938	-12.34868813	1.0
2	0	96.17900085	16.84999847	-10.90059566	33.84444046	-11.96773052	1.0
[LeftEye]
1	30.6760006	64.09500122	92.83599854	0	0	0	1.0
2	30.6760006	64.09500122	92.83599854	0	0	0	1.0
[RightEye]
1	-30.6760006	64.09500122	92.83499908	0	0	0	1.0
2	-30.6760006	64.09500122	92.83499908	0	0	0	1.0
[LeftShoulder]
1	45.70400238	109.4599991	-26.28000069	1.008496642	2.197287321	-7.514518261	1.0
2	45.70400238	109.4599991	-26.28000069	1.170476913	3.597575903	-7.405650616	1.0
[LeftArm]
1	105.923996	-5.24600029	-22.32099915	17.76802444	-9.122008324	-68.93611145	1.0
2	105.923996	-5.24600029	-22.32099915	17.7653904	-6.860467911	-67.73239136	1.0
[LeftForeArm]
1	278.414978	-0.0009999999311	0	-8.346751201e-06	-29.22143364	-0.0002067977184	1.0
2	278.414978	-0.0009999999311	0	3.606146493e-06	-26.17009354	-0.0001958012435	1.0
[LeftHand]
1	283.2879944	0	0	4.552804947	-14.46043015	4.857767582	1.0
2	283.2879944	0	0	4.476206779	-10.36060143	4.131513596	1.0
[LeftHandThumb1]
1	24.6609993	-15.75	26.8239994	30.58115005	-20.32058144	11.29641056	1.0
2	24.6609993	-15.75	26.8239994	30.58115005	-20.32058144	11.29641056	1.0
[LeftHandThumb2]
1	32.29800034	-18.64699936	18.64699936	9.137365341	22.86057854	-1.032785296	1.0
2	32.29800034	-18.64699936	18.64699936	9.815844536	23.07681656	-1.195633769	1.0
[LeftHandThumb3]
1	26.52600098	-15.31499958	15.31499958	-14.99386978	8.381422043	9.92784977	1.0
2	26.52600098	-15.31499958	15.31499958	-15.01304245	8.336449623	9.941405296	1.0
[LeftHandThumb4]
1	19.54599953	-11.28499985	11.28499985	0	0	0	1.0
2	19.54599953	-11.28499985	11.28499985	0	0	0	1.0
[LeftHandIndex1]
1	91.09299469	-5.170999527	22.60099792	-0.9252451062	-6.020177364	-19.70661545	1.0
2	91.09299469	-5.170999527	22.60099792	-0.9923174977	-5.892235756	-20.65667915	1.0
[LeftHandIndex2]
1	36.76399994	0	0	-0.7272897959	2.822316647	-28.89583588	1.0
2	36.76399994	0	0	-0.7270355821	2.821828365	-28.89043617	1.0
[LeftHandIndex3]
1	28.83100128	0	0	-0.3020690382	1.854360342	-18.50255966	1.0
2	28.83100128	0	0	-0.3018892109	1.853834629	-18.49713135	1.0
[LeftHandIndex4]
1	23.92700005	0	0	0	0	0	1.0
2	23.92700005	0	0	0	0	0	1.0
[LeftHandMiddle1]
1	95.33399963	0	0	-2.349571943	2.085986376	-35.01323318	1.0
2	95.33399963	0	0	-2.381968975	2.125291109	-35.36155319	1.0
[LeftHandMiddle2]
1	36.98199844	0	0	-0.5765954256	2.530424595	-25.66919327	1.0
2	36.98199844	0	0	-0.5800729394	2.537632942	-25.74787712	1.0
[LeftHandMiddle3]
1	29.50900078	0	0	-0.4058109224	2.139384985	-21.4792366	1.0
2	29.50900078	0	0	-0.4087841809	2.146921873	-21.55875778	1.0
[LeftHandMiddle4]
1	28.3390007	0	0	0	0	0	1.0
2	28.3390007	0	0	0	0	0	1.0
[LeftHandRing1]
1	91.04499817	-0.4390000105	-18.65100098	-2.094944239	3.785854816	-32.16821671	1.0
2	91.04499817	-0.4390000105	-18.65100098	-2.132557869	3.680824757	-32.58902359	1.0
[LeftHandRing2]
1	31.54000092	0	0	-0.8769783378	3.077598095	-31.80373955	1.0
2	31.54000092	0	0	-0.8758639693	3.075805187	-31.78286171	1.0
[LeftHandRing3]
1	29.37700081	0	0	-0.974750042	3.22971034	-33.5807724	1.0
2	29.37700081	0	0	-0.9735478163	3.227906227	-33.5595665	1.0
[LeftHandRing4]
1	26.47500038	0	0	0	0	0	1.0
2	26.47500038	0	0	0	0	0	1.0
[LeftHandPinky1]
1	80.77799988	-4.887000084	-38.06099701	-1.777747512	4.465471745	-28.34558296	1.0
2	80.77799988	-4.887000084	-38.06099701	-1.785071373	4.1867342	-28.43319893	1.0
[LeftHandPinky2]
1	36	0	0	-0.4588910341	2.269582987	-22.85943413	1.0
2	36	0	0	-0.4591737092	2.270211935	-22.86621094	1.0
[LeftHandPinky3]
1	21.14200211	0	0	-0.5245802999	2.4193151	-24.46465683	1.0
2	21.14200211	0	0	-0.5248528719	2.419894457	-24.47088432	1.0
[LeftHandPinky4]
1	19.75699997	0	0	0	0	0	1.0
2	19.75699997	0	0	0	0	0	1.0
[RightShoulder]
1	-45.70000076	109.4620056	-26.28000069	-1.554427624	7.006838322	9.518121719	1.0
2	-45.70000076	109.4620056	-26.28000069	-2.174298286	7.530476093	9.251669884	1.0
[RightArm]
1	-105.9280014	-5.248000145	-22.32099915	26.83447266	16.89645576	60.02413559	1.0
2	-105.9280014	-5.248000145	-22.32099915	26.64494324	18.60986328	59.0769043	1.0
[RightForeArm]
1	-278.414978	0	0	2.922679414e-06	12.60196114	1.105763567e-05	1.0
2	-278.414978	0	0	7.832418873e-07	15.14767361	8.615587831e-06	1.0
[RightHand]
1	-283.2879944	0	0.0009999999311	6.657670975	-2.354956865	-21.21051025	1.0
2	-283.2879944	0	0.0009999999311	4.574539661	-1.744930744	-21.99098015	1.0
[RightHandPinky1]
1	-80.76699829	-4.885000229	-38.06000137	-2.194121599	-4.702302456	35.98807907	1.0
2	-80.76699829	-4.885000229	-38.06000137	-2.154320717	-4.386435032	35.59378815	1.0
[RightHandPinky2]
1	-36	0	0.0009999999311	-0.404322207	-1.894058943	24.11747932	1.0
2	-36	0	0.0009999999311	-0.405903995	-1.897592783	24.16533661	1.0
[RightHandPinky3]
1	-21.14200211	0	0	-0.1790079772	-1.276326537	15.96669292	1.0
2	-21.14200211	0	0	-0.1801434457	-1.280295014	16.01768684	1.0
[RightHandPinky4]
1	-19.75699997	0	0	0	0	0	1.0
2	-19.75699997	0	0	0	0	0	1.0
[RightHandRing1]
1	-91.03599548	-0.4390000105	-18.65100098	-1.940166712	-6.878499985	32.92232895	1.0
2	-91.03599548	-0.4390000105	-18.65100098	-1.886436701	-6.771919727	32.22717667	1.0
[RightHandRing2]
1	-31.54000092	0	0	-0.3774883449	-1.832921863	23.27267838	1.0
2	-31.54000092	0	0	-0.3788857758	-1.836165071	23.31634903	1.0
[RightHandRing3]
1	-29.37700081	0	0	-0.2718664706	-1.564792275	19.7111187	1.0
2	-29.37700081	0	0	-0.2730871439	-1.568192482	19.7557621	1.0
[RightHandRing4]
1	-26.47500038	0	0	0	0	0	1.0
2	-26.47500038	0	0	0	0	0	1.0
[RightHandMiddle1]
1	-95.32500458	0	0	-1.768753886	-2.842730522	30.67187881	1.0
2	-95.32500458	0	0	-1.722212315	-2.479448795	30.06289673	1.0
[RightHandMiddle2]
1	-36.98199844	0	0	-0.2417194396	-1.477980971	18.57572365	1.0
2	-36.98199844	0	0	-0.2407048643	-1.474952936	18.53627014	1.0
[RightHandMiddle3]
1	-29.50900078	0	0	-0.08714080602	-0.8970590234	11.12124443	1.0
2	-29.50900078	0	0	-0.08652448654	-0.8939216137	11.08175373	1.0
[RightHandMiddle4]
1	-28.3390007	0	0.0009999999311	0	0	0	1.0
2	-28.3390007	0	0.0009999999311	0	0	0	1.0
[RightHandIndex1]
1	-91.08300018	-5.167999744	22.60099792	-1.279144406	1.919730902	24.30706406	1.0
2	-91.08300018	-5.167999744	22.60099792	-1.21611774	2.38274169	23.33319664	1.0
[RightHandIndex2]
1	-36.76399994	0	0	-0.1022019237	-0.9685074687	12.04746151	1.0
2	-36.76399994	0	0	-0.1018160433	-0.9667013884	12.02461433	1.0
[RightHandIndex3]
1	-28.83100128	0	0	-0.1063379645	-0.9876869321	12.28976536	1.0
2	-28.83100128	0	0	-0.1059465706	-0.9858750701	12.26689339	1.0
[RightHandIndex4]
1	-23.92700005	0	0	0	0	0	1.0
2	-23.92700005	0	0	0	0	0	1.0
[RightHandThumb1]
1	-24.64799881	-15.72700024	26.82600021	-0.1902875453	0.8218618631	0.3671384752	1.0
2	-24.64799881	-15.72700024	26.82600021	-0.1902875453	0.8218618631	0.3671384752	1.0
[RightHandThumb2]
1	-32.29800034	-18.64699936	18.64699936	17.07000542	-5.097047806	-19.83496857	1.0
2	-32.29800034	-18.64699936	18.64699936	15.73791218	-5.345674038	-20.1918869	1.0
[RightHandThumb3]
1	-26.52600098	-15.31399918	15.31399918	-0.001295722206	7.497717381	-24.17388725	1.0
2	-26.52600098	-15.31399918	15.31399918	0.4478790164	6.462683201	-23.92980766	1.0
[RightHandThumb4]
1	-19.54599953	-11.28499985	11.28499985	0	0	0	1.0
2	-19.54599953	-11.28499985	11.28499985	0	0	0	1.0
[LeftUpLeg]
1	82.07800293	-67.51699829	-15.99599934	-34.30179977	0.8594329953	2.953464985	1.0
2	82.07800293	-67.51699829	-15.99599934	-36.26541901	0.8733180165	-0.4565270841	1.0
[LeftLeg]
1	0	-443.7049866	2.845999956	55.93058395	-1.879598498	-2.690618753	1.0
2	0	-443.7049866	2.845999956	43.25196457	-0.9778451324	-0.8263668418	1.0
[LeftFoot]
1	0	-444.2789917	-29.8219986	-2.921836376	-0.05820997432	-4.022259235	1.0
2	0	-444.2789917	-29.8219986	-4.187640667	-0.07721108198	-5.208434105	1.0
[LeftToeBase]
1	0	-87.28699493	107.1060028	-7.57341671	2.050513649e-05	1.627002803e-06	1.0
2	0	-87.28699493	107.1060028	-7.036596298	-1.90681385e-05	2.980065801e-06	1.0
[RightUpLeg]
1	-82.07800293	-67.51699829	-15.99599934	-16.60586548	-6.352248669	5.205080509	1.0
2	-82.07800293	-67.51699829	-15.99599934	-12.15854359	-6.427823544	5.180043221	1.0
[RightLeg]
1	0	-443.7049866	2.861999989	26.34446526	1.8657161	1.277224064	1.0
2	0	-443.7049866	2.861999989	23.39169693	3.236337423	1.856932402	1.0
[RightFoot]
1	0	-444.2770081	-29.83799934	-14.71732616	-0.6957345009	-4.948014259	1.0
2	0	-444.2770081	-29.83799934	-16.55096245	-0.5071680546	-6.359900951	1.0
[RightToeBase]
1	0	-87.28699493	107.1060028	-8.080937386	1.125156086e-05	-2.779465831e-06	1.0
2	0	-87.28699493	107.1060028	-7.587638378	-2.182130993e-05	6.07834636e-07	1.0
[EndOfFile]
